# xmcd CD database file
#
# Track frame offsets:
#	182
#	12740
#	23135
#	34673
#	47608
#	60801
#	72810
#	85632
#	98101
#	112845
#	126567
#	140789
#	155176
#	169702
#	182739
#	195351
#	209120
#	223056
#
# Disc length: 3157 seconds
#
# Revision: 0
# Processed by: cddbd v1.5.2PL0 Copyright (c) Steve Scherf et al.
# Submitted via: CDex 1.51
#
DISCID=010c5312
DTITLE=Bix Beiderbecke - The quintessence (1924-1930) cd 1
DYEAR=1995
DGENRE=Jazz
TTITLE0=THE JAZZ ME BLUES
TTITLE1=OH BABY!
TTITLE2=RIVERBOAT SHUFFLE
TTITLE3=I NEED SOME PETTIN'
TTITLE4=ROYAL GARDEN BLUES
TTITLE5=TIGER RAG
TTITLE6=BIGBOY
TTITLE7=DAVENPORT BLUES
TTITLE8=CLARINET MARMELADE
TTITLE9=SINGIN' THE BLUES
TTITLE10=OSTRICH WALTZ
TTITLE11=RIVERBOAT SHUFFLE
TTITLE12=I'M COMING VIRGINIA
TTITLE13=WAY DOWN YONDER IN NEW ORLEANS
TTITLE14=IN A MIST (BIXOLOGY)
TTITLE15=CLEMENTINE (FROM NEW ORLEANS)
TTITLE16=HUMPTY DUMPTY
TTITLE17=KRAZY KAT
EXTD=YEAR: 1995
EXTT0=
EXTT1=
EXTT2=
EXTT3=
EXTT4=
EXTT5=
EXTT6=
EXTT7=
EXTT8=
EXTT9=
EXTT10=
EXTT11=
EXTT12=
EXTT13=
EXTT14=
EXTT15=
EXTT16=
EXTT17=
PLAYORDER=
